<svg xmlns="http://www.w3.org/2000/svg" xmlns:xlink="http://www.w3.org/1999/xlink" width="100" zoomAndPan="magnify" viewBox="0 0 75 67.499998" height="90" preserveAspectRatio="xMidYMid meet" version="1.0"><defs><g/><clipPath id="4e94fe2549"><path d="M 5.09375 27.070312 L 28.355469 27.070312 L 28.355469 39.855469 L 5.09375 39.855469 Z M 5.09375 27.070312 " clip-rule="nonzero"/></clipPath><clipPath id="c6af901aeb"><path d="M 28.355469 27.148438 L 69.90625 27.148438 L 69.90625 39.933594 L 28.355469 39.933594 Z M 28.355469 27.148438 " clip-rule="nonzero"/></clipPath></defs><g clip-path="url(#4e94fe2549)"><path fill="#ffffff" d="M 5.09375 27.070312 L 28.367188 27.070312 L 28.367188 39.855469 L 5.09375 39.855469 Z M 5.09375 27.070312 " fill-opacity="1" fill-rule="nonzero"/></g><g clip-path="url(#c6af901aeb)"><path fill="#000000" d="M 28.355469 27.148438 L 69.90625 27.148438 L 69.90625 39.933594 L 28.355469 39.933594 Z M 28.355469 27.148438 " fill-opacity="1" fill-rule="nonzero"/></g><g fill="#000000" fill-opacity="1"><g transform="translate(6.987736, 36.559456)"><g><path d="M 4.515625 -5.140625 L 4.515625 -4.5 C 4.515625 -4.351562 4.515625 -4.203125 4.515625 -4.046875 C 4.515625 -3.898438 4.519531 -3.742188 4.53125 -3.578125 L 4.53125 -1.765625 C 4.53125 -1.085938 4.359375 -0.53125 4.015625 -0.09375 C 3.835938 0.113281 3.628906 0.28125 3.390625 0.40625 C 3.160156 0.53125 2.898438 0.59375 2.609375 0.59375 L 0.296875 0.59375 C 0.285156 0.570312 0.289062 0.546875 0.3125 0.515625 C 0.320312 0.453125 0.367188 0.421875 0.453125 0.421875 C 0.492188 0.421875 0.53125 0.378906 0.5625 0.296875 C 0.582031 0.210938 0.597656 0.117188 0.609375 0.015625 C 0.617188 -0.078125 0.628906 -0.171875 0.640625 -0.265625 L 0.640625 -6.75 C 0.628906 -6.832031 0.617188 -6.925781 0.609375 -7.03125 C 0.597656 -7.132812 0.582031 -7.226562 0.5625 -7.3125 C 0.519531 -7.394531 0.484375 -7.4375 0.453125 -7.4375 C 0.359375 -7.4375 0.3125 -7.460938 0.3125 -7.515625 C 0.289062 -7.554688 0.285156 -7.585938 0.296875 -7.609375 L 1.734375 -7.609375 C 2.117188 -7.609375 2.484375 -7.554688 2.828125 -7.453125 C 3.171875 -7.359375 3.46875 -7.210938 3.71875 -7.015625 C 3.96875 -6.828125 4.160156 -6.578125 4.296875 -6.265625 C 4.441406 -5.953125 4.515625 -5.578125 4.515625 -5.140625 Z M 1.984375 0.15625 C 2.210938 0.15625 2.414062 0.101562 2.59375 0 C 2.769531 -0.113281 2.921875 -0.265625 3.046875 -0.453125 C 3.171875 -0.617188 3.265625 -0.8125 3.328125 -1.03125 C 3.390625 -1.257812 3.421875 -1.484375 3.421875 -1.703125 L 3.421875 -3.578125 C 3.421875 -3.742188 3.421875 -3.90625 3.421875 -4.0625 C 3.421875 -4.226562 3.421875 -4.382812 3.421875 -4.53125 L 3.421875 -5.140625 C 3.421875 -5.472656 3.394531 -5.757812 3.34375 -6 C 3.300781 -6.238281 3.21875 -6.4375 3.09375 -6.59375 C 2.851562 -6.882812 2.398438 -7.035156 1.734375 -7.046875 L 1.734375 0.140625 C 1.773438 0.148438 1.816406 0.15625 1.859375 0.15625 C 1.898438 0.15625 1.941406 0.15625 1.984375 0.15625 Z M 1.984375 0.15625 "/></g></g></g><g fill="#000000" fill-opacity="1"><g transform="translate(11.810577, 36.559456)"><g><path d="M 5.21875 0.421875 C 5.28125 0.421875 5.332031 0.453125 5.375 0.515625 C 5.382812 0.554688 5.390625 0.582031 5.390625 0.59375 L 3.609375 0.59375 C 3.585938 0.539062 3.597656 0.492188 3.640625 0.453125 C 3.648438 0.429688 3.675781 0.421875 3.71875 0.421875 C 3.769531 0.421875 3.800781 0.378906 3.8125 0.296875 C 3.832031 0.117188 3.828125 -0.0664062 3.796875 -0.265625 L 3.765625 -0.421875 L 3.625 -1.25 L 2.890625 -1.078125 C 2.640625 -1.023438 2.40625 -0.960938 2.1875 -0.890625 C 1.976562 -0.816406 1.800781 -0.722656 1.65625 -0.609375 C 1.507812 -0.484375 1.410156 -0.335938 1.359375 -0.171875 C 1.347656 -0.109375 1.335938 -0.046875 1.328125 0.015625 C 1.328125 0.0859375 1.328125 0.15625 1.328125 0.21875 C 1.328125 0.351562 1.351562 0.421875 1.40625 0.421875 C 1.46875 0.421875 1.507812 0.453125 1.53125 0.515625 C 1.539062 0.535156 1.535156 0.5625 1.515625 0.59375 L 0.125 0.59375 L 0.15625 0.515625 C 0.1875 0.453125 0.238281 0.421875 0.3125 0.421875 C 0.351562 0.421875 0.394531 0.378906 0.4375 0.296875 C 0.488281 0.210938 0.535156 0.117188 0.578125 0.015625 L 0.671875 -0.265625 C 0.691406 -0.359375 0.703125 -0.410156 0.703125 -0.421875 L 2.1875 -6.59375 L 2.21875 -6.75 C 2.25 -6.945312 2.265625 -7.132812 2.265625 -7.3125 C 2.253906 -7.394531 2.234375 -7.4375 2.203125 -7.4375 C 2.117188 -7.4375 2.070312 -7.457031 2.0625 -7.5 C 2.0625 -7.539062 2.070312 -7.578125 2.09375 -7.609375 L 3.953125 -7.609375 C 3.960938 -7.546875 3.953125 -7.492188 3.921875 -7.453125 C 3.910156 -7.441406 3.878906 -7.4375 3.828125 -7.4375 C 3.796875 -7.4375 3.769531 -7.394531 3.75 -7.3125 C 3.75 -7.21875 3.75 -7.117188 3.75 -7.015625 C 3.757812 -6.921875 3.769531 -6.828125 3.78125 -6.734375 C 3.789062 -6.691406 3.796875 -6.660156 3.796875 -6.640625 C 3.796875 -6.617188 3.796875 -6.601562 3.796875 -6.59375 L 4.515625 -2.40625 C 4.578125 -2.476562 4.617188 -2.546875 4.640625 -2.609375 C 4.660156 -2.671875 4.679688 -2.726562 4.703125 -2.78125 C 4.703125 -2.800781 4.703125 -2.828125 4.703125 -2.859375 C 4.710938 -2.890625 4.710938 -2.921875 4.703125 -2.953125 C 4.847656 -2.859375 4.945312 -2.742188 5 -2.609375 C 5.0625 -2.484375 5.085938 -2.359375 5.078125 -2.234375 C 5.066406 -2.085938 5.023438 -1.953125 4.953125 -1.828125 C 4.878906 -1.710938 4.785156 -1.628906 4.671875 -1.578125 L 4.875 -0.421875 L 4.90625 -0.265625 C 4.925781 -0.179688 4.953125 -0.0859375 4.984375 0.015625 C 5.015625 0.117188 5.050781 0.210938 5.09375 0.296875 C 5.132812 0.378906 5.175781 0.421875 5.21875 0.421875 Z M 2.78125 -6.109375 L 1.578125 -1.140625 C 1.742188 -1.285156 1.976562 -1.429688 2.28125 -1.578125 C 2.59375 -1.722656 3 -1.847656 3.5 -1.953125 Z M 2.78125 -6.109375 "/></g></g></g><g fill="#000000" fill-opacity="1"><g transform="translate(17.375393, 36.559456)"><g><path d="M 5.640625 1.359375 C 5.710938 1.359375 5.769531 1.382812 5.8125 1.4375 C 5.863281 1.488281 5.890625 1.550781 5.890625 1.625 C 5.890625 1.6875 5.875 1.75 5.84375 1.8125 C 5.8125 1.875 5.753906 1.929688 5.671875 1.984375 C 5.609375 2.023438 5.515625 2.054688 5.390625 2.078125 C 5.265625 2.109375 5.128906 2.113281 4.984375 2.09375 C 4.828125 2.070312 4.671875 2.019531 4.515625 1.9375 C 4.359375 1.863281 4.210938 1.742188 4.078125 1.578125 C 3.972656 1.453125 3.851562 1.273438 3.71875 1.046875 C 3.59375 0.816406 3.457031 0.570312 3.3125 0.3125 C 3.164062 0.0507812 3.015625 -0.210938 2.859375 -0.484375 C 2.703125 -0.753906 2.550781 -1.003906 2.40625 -1.234375 C 2.257812 -1.460938 2.117188 -1.648438 1.984375 -1.796875 C 1.847656 -1.953125 1.726562 -2.046875 1.625 -2.078125 L 1.625 -0.421875 C 1.625 -0.410156 1.625 -0.390625 1.625 -0.359375 C 1.625 -0.335938 1.628906 -0.304688 1.640625 -0.265625 C 1.640625 -0.0546875 1.664062 0.132812 1.71875 0.3125 C 1.75 0.382812 1.785156 0.421875 1.828125 0.421875 C 1.867188 0.421875 1.894531 0.429688 1.90625 0.453125 C 1.925781 0.472656 1.945312 0.492188 1.96875 0.515625 C 1.976562 0.535156 1.984375 0.5625 1.984375 0.59375 L 0.1875 0.59375 C 0.175781 0.570312 0.179688 0.546875 0.203125 0.515625 C 0.210938 0.453125 0.257812 0.421875 0.34375 0.421875 C 0.375 0.421875 0.410156 0.382812 0.453125 0.3125 C 0.472656 0.226562 0.488281 0.132812 0.5 0.03125 C 0.507812 -0.0703125 0.519531 -0.171875 0.53125 -0.265625 L 0.53125 -6.765625 C 0.519531 -6.847656 0.507812 -6.941406 0.5 -7.046875 C 0.488281 -7.148438 0.472656 -7.238281 0.453125 -7.3125 C 0.410156 -7.394531 0.375 -7.4375 0.34375 -7.4375 C 0.25 -7.4375 0.203125 -7.460938 0.203125 -7.515625 C 0.179688 -7.554688 0.175781 -7.585938 0.1875 -7.609375 L 1.609375 -7.609375 C 2.046875 -7.609375 2.457031 -7.539062 2.84375 -7.40625 C 3.226562 -7.28125 3.554688 -7.09375 3.828125 -6.84375 C 4.109375 -6.601562 4.328125 -6.304688 4.484375 -5.953125 C 4.648438 -5.597656 4.734375 -5.191406 4.734375 -4.734375 C 4.734375 -4.367188 4.675781 -4.03125 4.5625 -3.71875 C 4.445312 -3.414062 4.296875 -3.148438 4.109375 -2.921875 C 3.703125 -2.460938 3.207031 -2.179688 2.625 -2.078125 C 2.851562 -1.984375 3.0625 -1.828125 3.25 -1.609375 C 3.4375 -1.398438 3.613281 -1.160156 3.78125 -0.890625 C 3.863281 -0.742188 3.941406 -0.597656 4.015625 -0.453125 C 4.085938 -0.304688 4.160156 -0.160156 4.234375 -0.015625 C 4.359375 0.273438 4.484375 0.539062 4.609375 0.78125 C 4.742188 1.03125 4.867188 1.234375 4.984375 1.390625 C 5.109375 1.554688 5.242188 1.640625 5.390625 1.640625 L 5.390625 1.625 C 5.390625 1.550781 5.410156 1.488281 5.453125 1.4375 C 5.503906 1.382812 5.566406 1.359375 5.640625 1.359375 Z M 1.625 -2.484375 L 1.71875 -2.484375 C 2.226562 -2.484375 2.675781 -2.691406 3.0625 -3.109375 C 3.257812 -3.304688 3.410156 -3.546875 3.515625 -3.828125 C 3.628906 -4.117188 3.6875 -4.429688 3.6875 -4.765625 C 3.6875 -5.179688 3.625 -5.535156 3.5 -5.828125 C 3.375 -6.117188 3.210938 -6.363281 3.015625 -6.5625 C 2.816406 -6.757812 2.59375 -6.90625 2.34375 -7 C 2.101562 -7.09375 1.863281 -7.144531 1.625 -7.15625 Z M 1.625 -2.484375 "/></g></g></g><g fill="#000000" fill-opacity="1"><g transform="translate(22.340086, 36.559456)"><g><path d="M 5.078125 0.421875 C 5.117188 0.421875 5.15625 0.429688 5.1875 0.453125 C 5.21875 0.472656 5.242188 0.492188 5.265625 0.515625 C 5.296875 0.546875 5.316406 0.570312 5.328125 0.59375 L 3.53125 0.59375 C 3.507812 0.570312 3.492188 0.535156 3.484375 0.484375 C 3.472656 0.441406 3.507812 0.421875 3.59375 0.421875 C 3.632812 0.421875 3.644531 0.378906 3.625 0.296875 C 3.59375 0.210938 3.550781 0.117188 3.5 0.015625 C 3.445312 -0.078125 3.398438 -0.171875 3.359375 -0.265625 C 3.328125 -0.304688 3.304688 -0.335938 3.296875 -0.359375 C 3.285156 -0.390625 3.273438 -0.410156 3.265625 -0.421875 L 2.171875 -2.203125 L 1.734375 -1.25 L 1.734375 -0.421875 C 1.734375 -0.410156 1.734375 -0.394531 1.734375 -0.375 C 1.734375 -0.351562 1.738281 -0.316406 1.75 -0.265625 C 1.75 -0.179688 1.753906 -0.0859375 1.765625 0.015625 C 1.773438 0.117188 1.796875 0.210938 1.828125 0.296875 C 1.859375 0.378906 1.894531 0.421875 1.9375 0.421875 C 1.976562 0.421875 2.003906 0.429688 2.015625 0.453125 C 2.035156 0.472656 2.054688 0.492188 2.078125 0.515625 C 2.085938 0.535156 2.09375 0.5625 2.09375 0.59375 L 0.296875 0.59375 C 0.285156 0.570312 0.289062 0.546875 0.3125 0.515625 C 0.320312 0.453125 0.367188 0.421875 0.453125 0.421875 C 0.492188 0.421875 0.53125 0.378906 0.5625 0.296875 C 0.582031 0.210938 0.597656 0.117188 0.609375 0.015625 C 0.617188 -0.078125 0.628906 -0.171875 0.640625 -0.265625 L 0.640625 -6.75 C 0.628906 -6.832031 0.617188 -6.925781 0.609375 -7.03125 C 0.597656 -7.132812 0.582031 -7.226562 0.5625 -7.3125 C 0.519531 -7.394531 0.484375 -7.4375 0.453125 -7.4375 C 0.359375 -7.4375 0.3125 -7.460938 0.3125 -7.515625 C 0.289062 -7.554688 0.285156 -7.585938 0.296875 -7.609375 L 2.09375 -7.609375 C 2.09375 -7.546875 2.070312 -7.492188 2.03125 -7.453125 C 2 -7.441406 1.96875 -7.4375 1.9375 -7.4375 C 1.894531 -7.4375 1.859375 -7.390625 1.828125 -7.296875 C 1.804688 -7.210938 1.785156 -7.117188 1.765625 -7.015625 C 1.765625 -6.972656 1.757812 -6.925781 1.75 -6.875 C 1.75 -6.820312 1.75 -6.773438 1.75 -6.734375 C 1.738281 -6.691406 1.734375 -6.660156 1.734375 -6.640625 C 1.734375 -6.617188 1.734375 -6.601562 1.734375 -6.59375 L 1.734375 -2.8125 L 3.46875 -6.59375 C 3.613281 -6.882812 3.695312 -7.125 3.71875 -7.3125 C 3.726562 -7.394531 3.707031 -7.4375 3.65625 -7.4375 C 3.59375 -7.4375 3.5625 -7.460938 3.5625 -7.515625 C 3.5625 -7.546875 3.570312 -7.578125 3.59375 -7.609375 L 4.984375 -7.609375 C 4.972656 -7.578125 4.957031 -7.546875 4.9375 -7.515625 C 4.90625 -7.460938 4.847656 -7.4375 4.765625 -7.4375 C 4.722656 -7.4375 4.671875 -7.398438 4.609375 -7.328125 C 4.554688 -7.253906 4.5 -7.171875 4.4375 -7.078125 C 4.394531 -6.984375 4.347656 -6.890625 4.296875 -6.796875 C 4.242188 -6.703125 4.207031 -6.644531 4.1875 -6.625 L 2.640625 -3.21875 L 4.375 -0.421875 C 4.46875 -0.253906 4.554688 -0.113281 4.640625 0 C 4.734375 0.101562 4.816406 0.203125 4.890625 0.296875 C 4.972656 0.378906 5.035156 0.421875 5.078125 0.421875 Z M 5.078125 0.421875 "/></g></g></g><g fill="#000000" fill-opacity="1"><g transform="translate(27.839435, 36.559456)"><g/></g></g><g fill="#ffffff" fill-opacity="1"><g transform="translate(30.055146, 36.559456)"><g><path d="M 5.9375 0.421875 C 5.976562 0.421875 6.003906 0.429688 6.015625 0.453125 C 6.035156 0.472656 6.054688 0.492188 6.078125 0.515625 C 6.078125 0.535156 6.078125 0.5625 6.078125 0.59375 L 4.296875 0.59375 C 4.285156 0.570312 4.285156 0.546875 4.296875 0.515625 C 4.316406 0.453125 4.363281 0.421875 4.4375 0.421875 C 4.476562 0.421875 4.515625 0.382812 4.546875 0.3125 C 4.578125 0.226562 4.597656 0.132812 4.609375 0.03125 C 4.617188 -0.0703125 4.625 -0.171875 4.625 -0.265625 C 4.632812 -0.304688 4.640625 -0.335938 4.640625 -0.359375 C 4.640625 -0.390625 4.640625 -0.410156 4.640625 -0.421875 L 4.640625 -5.203125 L 3.015625 0 L 1.359375 -5.359375 L 1.359375 -0.421875 C 1.359375 -0.410156 1.359375 -0.390625 1.359375 -0.359375 C 1.359375 -0.335938 1.359375 -0.304688 1.359375 -0.265625 C 1.359375 -0.0546875 1.390625 0.132812 1.453125 0.3125 C 1.472656 0.382812 1.503906 0.421875 1.546875 0.421875 C 1.609375 0.421875 1.65625 0.453125 1.6875 0.515625 C 1.707031 0.546875 1.710938 0.570312 1.703125 0.59375 L 0.3125 0.59375 C 0.300781 0.570312 0.300781 0.546875 0.3125 0.515625 C 0.332031 0.453125 0.378906 0.421875 0.453125 0.421875 C 0.492188 0.421875 0.53125 0.382812 0.5625 0.3125 C 0.582031 0.226562 0.597656 0.132812 0.609375 0.03125 C 0.628906 -0.0703125 0.640625 -0.171875 0.640625 -0.265625 L 0.640625 -6.765625 C 0.640625 -6.847656 0.628906 -6.941406 0.609375 -7.046875 C 0.597656 -7.148438 0.582031 -7.238281 0.5625 -7.3125 C 0.53125 -7.394531 0.492188 -7.4375 0.453125 -7.4375 C 0.367188 -7.4375 0.320312 -7.460938 0.3125 -7.515625 C 0.300781 -7.554688 0.300781 -7.585938 0.3125 -7.609375 L 1.765625 -7.609375 L 3.203125 -2.734375 L 4.640625 -7.609375 L 6.078125 -7.609375 C 6.078125 -7.546875 6.0625 -7.492188 6.03125 -7.453125 C 6 -7.441406 5.96875 -7.4375 5.9375 -7.4375 C 5.882812 -7.4375 5.84375 -7.390625 5.8125 -7.296875 C 5.789062 -7.210938 5.773438 -7.117188 5.765625 -7.015625 L 5.734375 -6.59375 L 5.734375 -0.421875 C 5.742188 -0.265625 5.753906 -0.128906 5.765625 -0.015625 C 5.773438 0.0976562 5.796875 0.203125 5.828125 0.296875 C 5.847656 0.378906 5.882812 0.421875 5.9375 0.421875 Z M 5.9375 0.421875 "/></g></g></g><g fill="#ffffff" fill-opacity="1"><g transform="translate(36.438321, 36.559456)"><g><path d="M 2.171875 -7.609375 L 2.1875 -7.609375 C 2.425781 -7.597656 2.65625 -7.546875 2.875 -7.453125 C 3.101562 -7.359375 3.300781 -7.238281 3.46875 -7.09375 C 3.632812 -6.9375 3.765625 -6.753906 3.859375 -6.546875 C 3.960938 -6.347656 4.015625 -6.132812 4.015625 -5.90625 L 4.015625 -1.109375 C 4.015625 -0.867188 3.960938 -0.644531 3.859375 -0.4375 C 3.753906 -0.238281 3.617188 -0.0625 3.453125 0.09375 C 3.273438 0.238281 3.070312 0.359375 2.84375 0.453125 C 2.625 0.546875 2.394531 0.59375 2.15625 0.59375 C 1.90625 0.582031 1.664062 0.53125 1.4375 0.4375 C 1.21875 0.351562 1.023438 0.234375 0.859375 0.078125 C 0.679688 -0.078125 0.546875 -0.253906 0.453125 -0.453125 C 0.359375 -0.648438 0.3125 -0.867188 0.3125 -1.109375 L 0.3125 -5.90625 C 0.3125 -6.144531 0.359375 -6.363281 0.453125 -6.5625 C 0.554688 -6.769531 0.695312 -6.945312 0.875 -7.09375 C 1.226562 -7.414062 1.660156 -7.585938 2.171875 -7.609375 Z M 2.90625 -1.109375 L 2.90625 -5.90625 C 2.90625 -6.164062 2.832031 -6.394531 2.6875 -6.59375 C 2.539062 -6.789062 2.363281 -6.945312 2.15625 -7.0625 C 1.945312 -6.957031 1.769531 -6.800781 1.625 -6.59375 C 1.476562 -6.394531 1.40625 -6.164062 1.40625 -5.90625 L 1.40625 -1.109375 C 1.40625 -0.847656 1.476562 -0.613281 1.625 -0.40625 C 1.769531 -0.207031 1.945312 -0.0546875 2.15625 0.046875 C 2.363281 -0.0546875 2.539062 -0.207031 2.6875 -0.40625 C 2.832031 -0.613281 2.90625 -0.847656 2.90625 -1.109375 Z M 2.296875 -3.453125 C 2.296875 -3.117188 2.285156 -2.804688 2.265625 -2.515625 C 2.253906 -2.234375 2.242188 -1.984375 2.234375 -1.765625 L 2.15625 -1.078125 C 2.132812 -1.285156 2.113281 -1.503906 2.09375 -1.734375 C 2.070312 -1.972656 2.054688 -2.234375 2.046875 -2.515625 C 2.035156 -2.660156 2.023438 -2.8125 2.015625 -2.96875 C 2.015625 -3.132812 2.015625 -3.296875 2.015625 -3.453125 C 2.015625 -3.773438 2.019531 -4.082031 2.03125 -4.375 C 2.050781 -4.664062 2.070312 -4.914062 2.09375 -5.125 C 2.101562 -5.25 2.113281 -5.367188 2.125 -5.484375 C 2.132812 -5.597656 2.144531 -5.710938 2.15625 -5.828125 C 2.207031 -5.410156 2.242188 -4.925781 2.265625 -4.375 C 2.273438 -4.226562 2.28125 -4.078125 2.28125 -3.921875 C 2.289062 -3.773438 2.296875 -3.617188 2.296875 -3.453125 Z M 2.296875 -3.453125 "/></g></g></g><g fill="#ffffff" fill-opacity="1"><g transform="translate(40.737412, 36.559456)"><g><path d="M 4.625 0.421875 C 4.664062 0.421875 4.691406 0.429688 4.703125 0.453125 C 4.722656 0.472656 4.742188 0.492188 4.765625 0.515625 C 4.765625 0.535156 4.765625 0.5625 4.765625 0.59375 L 3.328125 0.59375 L 1.34375 -5.46875 L 1.34375 -0.421875 C 1.351562 -0.253906 1.363281 -0.113281 1.375 0 C 1.382812 0.101562 1.40625 0.203125 1.4375 0.296875 C 1.457031 0.378906 1.492188 0.421875 1.546875 0.421875 C 1.597656 0.421875 1.644531 0.453125 1.6875 0.515625 C 1.695312 0.546875 1.695312 0.570312 1.6875 0.59375 L 0.296875 0.59375 C 0.285156 0.570312 0.289062 0.546875 0.3125 0.515625 C 0.320312 0.453125 0.367188 0.421875 0.453125 0.421875 C 0.484375 0.421875 0.519531 0.382812 0.5625 0.3125 C 0.582031 0.226562 0.597656 0.132812 0.609375 0.03125 C 0.617188 -0.0703125 0.628906 -0.171875 0.640625 -0.265625 L 0.640625 -6.765625 C 0.628906 -6.847656 0.617188 -6.941406 0.609375 -7.046875 C 0.597656 -7.148438 0.582031 -7.238281 0.5625 -7.3125 C 0.519531 -7.394531 0.484375 -7.4375 0.453125 -7.4375 C 0.359375 -7.4375 0.3125 -7.460938 0.3125 -7.515625 C 0.289062 -7.554688 0.285156 -7.585938 0.296875 -7.609375 L 1.75 -7.609375 L 3.328125 -2.78125 L 3.328125 -6.765625 C 3.316406 -6.960938 3.289062 -7.144531 3.25 -7.3125 C 3.207031 -7.394531 3.171875 -7.4375 3.140625 -7.4375 C 3.046875 -7.4375 3 -7.460938 3 -7.515625 C 2.976562 -7.554688 2.972656 -7.585938 2.984375 -7.609375 L 4.765625 -7.609375 C 4.765625 -7.546875 4.75 -7.492188 4.71875 -7.453125 C 4.6875 -7.441406 4.65625 -7.4375 4.625 -7.4375 C 4.570312 -7.4375 4.535156 -7.394531 4.515625 -7.3125 C 4.492188 -7.238281 4.472656 -7.148438 4.453125 -7.046875 C 4.441406 -6.941406 4.4375 -6.847656 4.4375 -6.765625 C 4.4375 -6.710938 4.4375 -6.671875 4.4375 -6.640625 C 4.4375 -6.617188 4.4375 -6.601562 4.4375 -6.59375 L 4.4375 -0.390625 C 4.4375 -0.359375 4.4375 -0.296875 4.4375 -0.203125 C 4.4375 -0.117188 4.445312 -0.03125 4.46875 0.0625 C 4.476562 0.113281 4.488281 0.160156 4.5 0.203125 C 4.507812 0.242188 4.515625 0.28125 4.515625 0.3125 C 4.535156 0.382812 4.570312 0.421875 4.625 0.421875 Z M 4.625 0.421875 "/></g></g></g><g fill="#ffffff" fill-opacity="1"><g transform="translate(45.789394, 36.559456)"><g><path d="M 1.4375 -6 C 1.4375 -5.738281 1.5 -5.492188 1.625 -5.265625 C 1.757812 -5.035156 1.925781 -4.8125 2.125 -4.59375 C 2.21875 -4.46875 2.3125 -4.347656 2.40625 -4.234375 C 2.507812 -4.128906 2.617188 -4.019531 2.734375 -3.90625 C 2.960938 -3.6875 3.171875 -3.445312 3.359375 -3.1875 C 3.554688 -2.9375 3.722656 -2.660156 3.859375 -2.359375 C 3.984375 -2.054688 4.046875 -1.726562 4.046875 -1.375 C 4.046875 -1.101562 4 -0.84375 3.90625 -0.59375 C 3.820312 -0.351562 3.691406 -0.140625 3.515625 0.046875 C 3.335938 0.242188 3.117188 0.398438 2.859375 0.515625 C 2.609375 0.628906 2.3125 0.6875 1.96875 0.6875 C 1.707031 0.6875 1.46875 0.640625 1.25 0.546875 C 1.039062 0.453125 0.859375 0.320312 0.703125 0.15625 C 0.554688 0 0.4375 -0.179688 0.34375 -0.390625 C 0.257812 -0.609375 0.21875 -0.835938 0.21875 -1.078125 C 0.21875 -1.410156 0.285156 -1.65625 0.421875 -1.8125 C 0.566406 -1.96875 0.722656 -2.0625 0.890625 -2.09375 C 1.054688 -2.113281 1.207031 -2.070312 1.34375 -1.96875 C 1.476562 -1.875 1.546875 -1.742188 1.546875 -1.578125 C 1.410156 -1.578125 1.3125 -1.484375 1.25 -1.296875 C 1.195312 -1.117188 1.1875 -0.921875 1.21875 -0.703125 C 1.257812 -0.484375 1.335938 -0.28125 1.453125 -0.09375 C 1.578125 0.0820312 1.75 0.171875 1.96875 0.171875 C 2.238281 0.171875 2.46875 0.03125 2.65625 -0.25 C 2.851562 -0.53125 2.953125 -0.90625 2.953125 -1.375 C 2.953125 -1.707031 2.882812 -2.003906 2.75 -2.265625 C 2.625 -2.523438 2.46875 -2.769531 2.28125 -3 C 2.082031 -3.21875 1.875 -3.4375 1.65625 -3.65625 C 1.425781 -3.863281 1.210938 -4.082031 1.015625 -4.3125 C 0.828125 -4.550781 0.671875 -4.804688 0.546875 -5.078125 C 0.410156 -5.359375 0.34375 -5.664062 0.34375 -6 C 0.34375 -6.28125 0.394531 -6.519531 0.5 -6.71875 C 0.601562 -6.914062 0.734375 -7.085938 0.890625 -7.234375 C 1.054688 -7.359375 1.238281 -7.457031 1.4375 -7.53125 C 1.632812 -7.613281 1.832031 -7.671875 2.03125 -7.703125 C 2.238281 -7.734375 2.4375 -7.742188 2.625 -7.734375 C 2.820312 -7.734375 3.003906 -7.722656 3.171875 -7.703125 L 3.6875 -7.609375 C 3.6875 -7.472656 3.660156 -7.296875 3.609375 -7.078125 C 3.554688 -6.867188 3.492188 -6.65625 3.421875 -6.4375 C 3.398438 -6.320312 3.367188 -6.210938 3.328125 -6.109375 C 3.296875 -6.003906 3.269531 -5.898438 3.25 -5.796875 C 3.21875 -5.691406 3.191406 -5.597656 3.171875 -5.515625 C 3.148438 -5.429688 3.140625 -5.363281 3.140625 -5.3125 C 3.140625 -5.21875 3.164062 -5.160156 3.21875 -5.140625 L 3.21875 -5.15625 C 3.21875 -5.226562 3.238281 -5.289062 3.28125 -5.34375 C 3.332031 -5.394531 3.394531 -5.421875 3.46875 -5.421875 C 3.539062 -5.421875 3.597656 -5.394531 3.640625 -5.34375 C 3.691406 -5.289062 3.71875 -5.226562 3.71875 -5.15625 C 3.71875 -5.070312 3.6875 -4.992188 3.625 -4.921875 C 3.5625 -4.847656 3.488281 -4.796875 3.40625 -4.765625 C 3.332031 -4.742188 3.242188 -4.734375 3.140625 -4.734375 C 3.046875 -4.742188 2.953125 -4.789062 2.859375 -4.875 C 2.753906 -4.976562 2.691406 -5.109375 2.671875 -5.265625 C 2.648438 -5.421875 2.648438 -5.582031 2.671875 -5.75 C 2.691406 -5.832031 2.707031 -5.914062 2.71875 -6 C 2.726562 -6.09375 2.742188 -6.179688 2.765625 -6.265625 C 2.796875 -6.441406 2.804688 -6.597656 2.796875 -6.734375 C 2.785156 -6.867188 2.742188 -6.976562 2.671875 -7.0625 C 2.578125 -7.15625 2.425781 -7.203125 2.21875 -7.203125 C 1.957031 -7.203125 1.757812 -7.085938 1.625 -6.859375 C 1.5 -6.640625 1.4375 -6.351562 1.4375 -6 Z M 1.4375 -6 "/></g></g></g><g fill="#ffffff" fill-opacity="1"><g transform="translate(50.033935, 36.559456)"><g><path d="M 5.0625 -5.15625 C 5.0625 -5.070312 5.03125 -4.992188 4.96875 -4.921875 C 4.914062 -4.847656 4.835938 -4.796875 4.734375 -4.765625 C 4.660156 -4.742188 4.570312 -4.734375 4.46875 -4.734375 C 4.375 -4.742188 4.28125 -4.789062 4.1875 -4.875 C 4.082031 -4.976562 4.019531 -5.109375 4 -5.265625 C 3.976562 -5.421875 3.972656 -5.582031 3.984375 -5.75 C 4.003906 -5.914062 4.023438 -6.085938 4.046875 -6.265625 C 4.078125 -6.429688 4.085938 -6.582031 4.078125 -6.71875 C 4.078125 -6.851562 4.039062 -6.96875 3.96875 -7.0625 C 3.90625 -7.132812 3.785156 -7.179688 3.609375 -7.203125 L 3.140625 -7.203125 L 3.140625 -0.421875 C 3.140625 -0.410156 3.140625 -0.390625 3.140625 -0.359375 C 3.140625 -0.335938 3.144531 -0.304688 3.15625 -0.265625 C 3.15625 -0.0546875 3.1875 0.132812 3.25 0.3125 C 3.269531 0.382812 3.300781 0.421875 3.34375 0.421875 C 3.394531 0.421875 3.441406 0.453125 3.484375 0.515625 C 3.492188 0.546875 3.5 0.570312 3.5 0.59375 L 1.703125 0.59375 C 1.703125 0.5625 1.707031 0.535156 1.71875 0.515625 C 1.726562 0.453125 1.769531 0.421875 1.84375 0.421875 C 1.882812 0.421875 1.921875 0.378906 1.953125 0.296875 C 1.992188 0.222656 2.015625 0.132812 2.015625 0.03125 C 2.023438 -0.0195312 2.03125 -0.0664062 2.03125 -0.109375 C 2.03125 -0.160156 2.035156 -0.210938 2.046875 -0.265625 L 2.046875 -7.203125 L 1.578125 -7.203125 C 1.398438 -7.191406 1.273438 -7.140625 1.203125 -7.046875 C 1.140625 -6.960938 1.109375 -6.859375 1.109375 -6.734375 C 1.097656 -6.585938 1.109375 -6.429688 1.140625 -6.265625 C 1.160156 -6.085938 1.175781 -5.914062 1.1875 -5.75 C 1.207031 -5.582031 1.207031 -5.421875 1.1875 -5.265625 C 1.164062 -5.109375 1.109375 -4.984375 1.015625 -4.890625 C 0.921875 -4.796875 0.820312 -4.75 0.71875 -4.75 C 0.625 -4.738281 0.535156 -4.742188 0.453125 -4.765625 C 0.378906 -4.796875 0.304688 -4.847656 0.234375 -4.921875 C 0.171875 -4.992188 0.140625 -5.070312 0.140625 -5.15625 C 0.140625 -5.226562 0.160156 -5.289062 0.203125 -5.34375 C 0.253906 -5.394531 0.316406 -5.421875 0.390625 -5.421875 C 0.460938 -5.421875 0.523438 -5.394531 0.578125 -5.34375 C 0.628906 -5.289062 0.65625 -5.226562 0.65625 -5.15625 C 0.65625 -5.144531 0.648438 -5.140625 0.640625 -5.140625 C 0.703125 -5.160156 0.726562 -5.21875 0.71875 -5.3125 C 0.707031 -5.4375 0.671875 -5.597656 0.609375 -5.796875 C 0.554688 -6.003906 0.5 -6.21875 0.4375 -6.4375 C 0.375 -6.65625 0.3125 -6.867188 0.25 -7.078125 C 0.195312 -7.296875 0.171875 -7.472656 0.171875 -7.609375 L 5.03125 -7.609375 C 5.03125 -7.472656 5 -7.296875 4.9375 -7.078125 C 4.882812 -6.867188 4.828125 -6.65625 4.765625 -6.4375 C 4.734375 -6.320312 4.703125 -6.210938 4.671875 -6.109375 C 4.640625 -6.003906 4.609375 -5.898438 4.578125 -5.796875 C 4.546875 -5.691406 4.519531 -5.597656 4.5 -5.515625 C 4.488281 -5.429688 4.476562 -5.363281 4.46875 -5.3125 C 4.46875 -5.21875 4.492188 -5.160156 4.546875 -5.140625 L 4.546875 -5.15625 C 4.546875 -5.226562 4.566406 -5.289062 4.609375 -5.34375 C 4.660156 -5.394531 4.722656 -5.421875 4.796875 -5.421875 C 4.867188 -5.421875 4.929688 -5.394531 4.984375 -5.34375 C 5.035156 -5.289062 5.0625 -5.226562 5.0625 -5.15625 Z M 5.0625 -5.15625 "/></g></g></g><g fill="#ffffff" fill-opacity="1"><g transform="translate(55.227758, 36.559456)"><g><path d="M 3.8125 -1.90625 C 3.75 -1.707031 3.703125 -1.492188 3.671875 -1.265625 C 3.648438 -1.035156 3.640625 -0.769531 3.640625 -0.46875 C 3.648438 -0.15625 3.707031 0.195312 3.8125 0.59375 L 0.265625 0.59375 C 0.265625 0.570312 0.269531 0.546875 0.28125 0.515625 C 0.300781 0.453125 0.347656 0.421875 0.421875 0.421875 C 0.460938 0.421875 0.5 0.382812 0.53125 0.3125 C 0.550781 0.226562 0.566406 0.132812 0.578125 0.03125 C 0.585938 -0.0703125 0.597656 -0.171875 0.609375 -0.265625 L 0.609375 -6.765625 C 0.597656 -6.847656 0.585938 -6.941406 0.578125 -7.046875 C 0.566406 -7.148438 0.550781 -7.238281 0.53125 -7.3125 C 0.5 -7.394531 0.460938 -7.4375 0.421875 -7.4375 C 0.335938 -7.4375 0.289062 -7.460938 0.28125 -7.515625 C 0.269531 -7.554688 0.265625 -7.585938 0.265625 -7.609375 L 3.734375 -7.609375 C 3.734375 -7.472656 3.707031 -7.296875 3.65625 -7.078125 C 3.601562 -6.867188 3.539062 -6.65625 3.46875 -6.4375 C 3.40625 -6.21875 3.34375 -6.003906 3.28125 -5.796875 C 3.226562 -5.597656 3.195312 -5.4375 3.1875 -5.3125 C 3.175781 -5.21875 3.195312 -5.160156 3.25 -5.140625 L 3.25 -5.15625 C 3.25 -5.226562 3.273438 -5.289062 3.328125 -5.34375 C 3.378906 -5.394531 3.441406 -5.421875 3.515625 -5.421875 C 3.578125 -5.421875 3.632812 -5.394531 3.6875 -5.34375 C 3.738281 -5.289062 3.765625 -5.226562 3.765625 -5.15625 C 3.765625 -5.070312 3.734375 -4.992188 3.671875 -4.921875 C 3.617188 -4.847656 3.550781 -4.796875 3.46875 -4.765625 C 3.382812 -4.742188 3.289062 -4.734375 3.1875 -4.734375 C 3.082031 -4.742188 2.992188 -4.789062 2.921875 -4.875 C 2.804688 -4.976562 2.734375 -5.109375 2.703125 -5.265625 C 2.679688 -5.421875 2.679688 -5.582031 2.703125 -5.75 C 2.703125 -5.832031 2.707031 -5.914062 2.71875 -6 C 2.738281 -6.09375 2.757812 -6.179688 2.78125 -6.265625 C 2.8125 -6.429688 2.820312 -6.582031 2.8125 -6.71875 C 2.800781 -6.851562 2.765625 -6.96875 2.703125 -7.0625 C 2.628906 -7.132812 2.507812 -7.179688 2.34375 -7.203125 L 1.71875 -7.203125 L 1.71875 -2.671875 C 1.75 -2.671875 1.8125 -2.671875 1.90625 -2.671875 C 2 -2.679688 2.09375 -2.691406 2.1875 -2.703125 C 2.238281 -2.710938 2.285156 -2.722656 2.328125 -2.734375 C 2.367188 -2.742188 2.410156 -2.753906 2.453125 -2.765625 C 2.523438 -2.785156 2.5625 -2.816406 2.5625 -2.859375 C 2.5625 -2.898438 2.566406 -2.929688 2.578125 -2.953125 C 2.585938 -2.972656 2.601562 -2.988281 2.625 -3 C 2.65625 -3.007812 2.6875 -3.015625 2.71875 -3.015625 L 2.71875 -1.921875 C 2.6875 -1.921875 2.648438 -1.925781 2.609375 -1.9375 C 2.578125 -1.945312 2.5625 -1.988281 2.5625 -2.0625 C 2.5625 -2.101562 2.523438 -2.140625 2.453125 -2.171875 C 2.378906 -2.191406 2.289062 -2.207031 2.1875 -2.21875 C 2.082031 -2.238281 1.988281 -2.253906 1.90625 -2.265625 L 1.71875 -2.265625 L 1.71875 0.1875 L 2.296875 0.1875 C 2.515625 0.175781 2.6875 0.0976562 2.8125 -0.046875 C 2.945312 -0.191406 3.050781 -0.363281 3.125 -0.5625 C 3.195312 -0.757812 3.242188 -0.953125 3.265625 -1.140625 C 3.296875 -1.335938 3.3125 -1.476562 3.3125 -1.5625 C 3.3125 -1.6875 3.335938 -1.769531 3.390625 -1.8125 C 3.441406 -1.863281 3.5 -1.894531 3.5625 -1.90625 C 3.632812 -1.914062 3.71875 -1.914062 3.8125 -1.90625 Z M 3.8125 -1.90625 "/></g></g></g><g fill="#ffffff" fill-opacity="1"><g transform="translate(59.341352, 36.559456)"><g><path d="M 5.640625 1.359375 C 5.710938 1.359375 5.769531 1.382812 5.8125 1.4375 C 5.863281 1.488281 5.890625 1.550781 5.890625 1.625 C 5.890625 1.6875 5.875 1.75 5.84375 1.8125 C 5.8125 1.875 5.753906 1.929688 5.671875 1.984375 C 5.609375 2.023438 5.515625 2.054688 5.390625 2.078125 C 5.265625 2.109375 5.128906 2.113281 4.984375 2.09375 C 4.828125 2.070312 4.671875 2.019531 4.515625 1.9375 C 4.359375 1.863281 4.210938 1.742188 4.078125 1.578125 C 3.972656 1.453125 3.851562 1.273438 3.71875 1.046875 C 3.59375 0.816406 3.457031 0.570312 3.3125 0.3125 C 3.164062 0.0507812 3.015625 -0.210938 2.859375 -0.484375 C 2.703125 -0.753906 2.550781 -1.003906 2.40625 -1.234375 C 2.257812 -1.460938 2.117188 -1.648438 1.984375 -1.796875 C 1.847656 -1.953125 1.726562 -2.046875 1.625 -2.078125 L 1.625 -0.421875 C 1.625 -0.410156 1.625 -0.390625 1.625 -0.359375 C 1.625 -0.335938 1.628906 -0.304688 1.640625 -0.265625 C 1.640625 -0.0546875 1.664062 0.132812 1.71875 0.3125 C 1.75 0.382812 1.785156 0.421875 1.828125 0.421875 C 1.867188 0.421875 1.894531 0.429688 1.90625 0.453125 C 1.925781 0.472656 1.945312 0.492188 1.96875 0.515625 C 1.976562 0.535156 1.984375 0.5625 1.984375 0.59375 L 0.1875 0.59375 C 0.175781 0.570312 0.179688 0.546875 0.203125 0.515625 C 0.210938 0.453125 0.257812 0.421875 0.34375 0.421875 C 0.375 0.421875 0.410156 0.382812 0.453125 0.3125 C 0.472656 0.226562 0.488281 0.132812 0.5 0.03125 C 0.507812 -0.0703125 0.519531 -0.171875 0.53125 -0.265625 L 0.53125 -6.765625 C 0.519531 -6.847656 0.507812 -6.941406 0.5 -7.046875 C 0.488281 -7.148438 0.472656 -7.238281 0.453125 -7.3125 C 0.410156 -7.394531 0.375 -7.4375 0.34375 -7.4375 C 0.25 -7.4375 0.203125 -7.460938 0.203125 -7.515625 C 0.179688 -7.554688 0.175781 -7.585938 0.1875 -7.609375 L 1.609375 -7.609375 C 2.046875 -7.609375 2.457031 -7.539062 2.84375 -7.40625 C 3.226562 -7.28125 3.554688 -7.09375 3.828125 -6.84375 C 4.109375 -6.601562 4.328125 -6.304688 4.484375 -5.953125 C 4.648438 -5.597656 4.734375 -5.191406 4.734375 -4.734375 C 4.734375 -4.367188 4.675781 -4.03125 4.5625 -3.71875 C 4.445312 -3.414062 4.296875 -3.148438 4.109375 -2.921875 C 3.703125 -2.460938 3.207031 -2.179688 2.625 -2.078125 C 2.851562 -1.984375 3.0625 -1.828125 3.25 -1.609375 C 3.4375 -1.398438 3.613281 -1.160156 3.78125 -0.890625 C 3.863281 -0.742188 3.941406 -0.597656 4.015625 -0.453125 C 4.085938 -0.304688 4.160156 -0.160156 4.234375 -0.015625 C 4.359375 0.273438 4.484375 0.539062 4.609375 0.78125 C 4.742188 1.03125 4.867188 1.234375 4.984375 1.390625 C 5.109375 1.554688 5.242188 1.640625 5.390625 1.640625 L 5.390625 1.625 C 5.390625 1.550781 5.410156 1.488281 5.453125 1.4375 C 5.503906 1.382812 5.566406 1.359375 5.640625 1.359375 Z M 1.625 -2.484375 L 1.71875 -2.484375 C 2.226562 -2.484375 2.675781 -2.691406 3.0625 -3.109375 C 3.257812 -3.304688 3.410156 -3.546875 3.515625 -3.828125 C 3.628906 -4.117188 3.6875 -4.429688 3.6875 -4.765625 C 3.6875 -5.179688 3.625 -5.535156 3.5 -5.828125 C 3.375 -6.117188 3.210938 -6.363281 3.015625 -6.5625 C 2.816406 -6.757812 2.59375 -6.90625 2.34375 -7 C 2.101562 -7.09375 1.863281 -7.144531 1.625 -7.15625 Z M 1.625 -2.484375 "/></g></g></g><g fill="#ffffff" fill-opacity="1"><g transform="translate(64.306045, 36.559456)"><g><path d="M 1.4375 -6 C 1.4375 -5.738281 1.5 -5.492188 1.625 -5.265625 C 1.757812 -5.035156 1.925781 -4.8125 2.125 -4.59375 C 2.21875 -4.46875 2.3125 -4.347656 2.40625 -4.234375 C 2.507812 -4.128906 2.617188 -4.019531 2.734375 -3.90625 C 2.960938 -3.6875 3.171875 -3.445312 3.359375 -3.1875 C 3.554688 -2.9375 3.722656 -2.660156 3.859375 -2.359375 C 3.984375 -2.054688 4.046875 -1.726562 4.046875 -1.375 C 4.046875 -1.101562 4 -0.84375 3.90625 -0.59375 C 3.820312 -0.351562 3.691406 -0.140625 3.515625 0.046875 C 3.335938 0.242188 3.117188 0.398438 2.859375 0.515625 C 2.609375 0.628906 2.3125 0.6875 1.96875 0.6875 C 1.707031 0.6875 1.46875 0.640625 1.25 0.546875 C 1.039062 0.453125 0.859375 0.320312 0.703125 0.15625 C 0.554688 0 0.4375 -0.179688 0.34375 -0.390625 C 0.257812 -0.609375 0.21875 -0.835938 0.21875 -1.078125 C 0.21875 -1.410156 0.285156 -1.65625 0.421875 -1.8125 C 0.566406 -1.96875 0.722656 -2.0625 0.890625 -2.09375 C 1.054688 -2.113281 1.207031 -2.070312 1.34375 -1.96875 C 1.476562 -1.875 1.546875 -1.742188 1.546875 -1.578125 C 1.410156 -1.578125 1.3125 -1.484375 1.25 -1.296875 C 1.195312 -1.117188 1.1875 -0.921875 1.21875 -0.703125 C 1.257812 -0.484375 1.335938 -0.28125 1.453125 -0.09375 C 1.578125 0.0820312 1.75 0.171875 1.96875 0.171875 C 2.238281 0.171875 2.46875 0.03125 2.65625 -0.25 C 2.851562 -0.53125 2.953125 -0.90625 2.953125 -1.375 C 2.953125 -1.707031 2.882812 -2.003906 2.75 -2.265625 C 2.625 -2.523438 2.46875 -2.769531 2.28125 -3 C 2.082031 -3.21875 1.875 -3.4375 1.65625 -3.65625 C 1.425781 -3.863281 1.210938 -4.082031 1.015625 -4.3125 C 0.828125 -4.550781 0.671875 -4.804688 0.546875 -5.078125 C 0.410156 -5.359375 0.34375 -5.664062 0.34375 -6 C 0.34375 -6.28125 0.394531 -6.519531 0.5 -6.71875 C 0.601562 -6.914062 0.734375 -7.085938 0.890625 -7.234375 C 1.054688 -7.359375 1.238281 -7.457031 1.4375 -7.53125 C 1.632812 -7.613281 1.832031 -7.671875 2.03125 -7.703125 C 2.238281 -7.734375 2.4375 -7.742188 2.625 -7.734375 C 2.820312 -7.734375 3.003906 -7.722656 3.171875 -7.703125 L 3.6875 -7.609375 C 3.6875 -7.472656 3.660156 -7.296875 3.609375 -7.078125 C 3.554688 -6.867188 3.492188 -6.65625 3.421875 -6.4375 C 3.398438 -6.320312 3.367188 -6.210938 3.328125 -6.109375 C 3.296875 -6.003906 3.269531 -5.898438 3.25 -5.796875 C 3.21875 -5.691406 3.191406 -5.597656 3.171875 -5.515625 C 3.148438 -5.429688 3.140625 -5.363281 3.140625 -5.3125 C 3.140625 -5.21875 3.164062 -5.160156 3.21875 -5.140625 L 3.21875 -5.15625 C 3.21875 -5.226562 3.238281 -5.289062 3.28125 -5.34375 C 3.332031 -5.394531 3.394531 -5.421875 3.46875 -5.421875 C 3.539062 -5.421875 3.597656 -5.394531 3.640625 -5.34375 C 3.691406 -5.289062 3.71875 -5.226562 3.71875 -5.15625 C 3.71875 -5.070312 3.6875 -4.992188 3.625 -4.921875 C 3.5625 -4.847656 3.488281 -4.796875 3.40625 -4.765625 C 3.332031 -4.742188 3.242188 -4.734375 3.140625 -4.734375 C 3.046875 -4.742188 2.953125 -4.789062 2.859375 -4.875 C 2.753906 -4.976562 2.691406 -5.109375 2.671875 -5.265625 C 2.648438 -5.421875 2.648438 -5.582031 2.671875 -5.75 C 2.691406 -5.832031 2.707031 -5.914062 2.71875 -6 C 2.726562 -6.09375 2.742188 -6.179688 2.765625 -6.265625 C 2.796875 -6.441406 2.804688 -6.597656 2.796875 -6.734375 C 2.785156 -6.867188 2.742188 -6.976562 2.671875 -7.0625 C 2.578125 -7.15625 2.425781 -7.203125 2.21875 -7.203125 C 1.957031 -7.203125 1.757812 -7.085938 1.625 -6.859375 C 1.5 -6.640625 1.4375 -6.351562 1.4375 -6 Z M 1.4375 -6 "/></g></g></g></svg>